<svg xmlns="http://www.w3.org/2000/svg" width="256" height="256" viewBox="0 0 100 100"><rect width="100" height="100" rx="50" fill="#f00020"></rect><path fill="#fff" d="M22.42 49.46L22.42 49.46Q22.42 43.61 24.44 37.98Q26.47 32.36 30.34 27.73Q34.20 23.09 39.88 20.34Q45.55 17.60 52.75 17.60L52.75 17.60Q61.30 17.60 67.37 21.52Q73.44 25.43 76.33 31.55L76.33 31.55L71.38 34.61Q69.30 30.38 66.16 27.91Q63.00 25.43 59.45 24.35Q55.89 23.27 52.39 23.27L52.39 23.27Q46.63 23.27 42.22 25.57Q37.80 27.86 34.79 31.69Q31.77 35.51 30.25 40.23Q28.72 44.96 28.72 49.82L28.72 49.82Q28.72 55.13 30.52 59.99Q32.31 64.85 35.55 68.58Q38.80 72.32 43.16 74.53Q47.53 76.73 52.66 76.73L52.66 76.73Q56.25 76.73 60.03 75.47Q63.81 74.21 67.10 71.60Q70.39 68.99 72.36 64.85L72.36 64.85L77.58 67.55Q75.61 72.32 71.47 75.65Q67.33 78.98 62.24 80.69Q57.16 82.40 52.30 82.40L52.30 82.40Q45.73 82.40 40.23 79.56Q34.75 76.73 30.74 72.00Q26.73 67.28 24.58 61.39Q22.42 55.49 22.42 49.46Z"></path></svg>